# xmcd CD database file
#
# Track frame offsets:
#	150
#	21556
#	45599
#	76246
#	106928
#	131582
#	161451
#	193213
#	228619
#	266321
#	289794
#	309606
#
# Disc length: 4556 seconds
#
# Revision: 0
# Processed by: cddbd v1.5.2PL0 Copyright (c) Steve Scherf et al.
# Submitted via: CDex 1.51
#
DISCID=a211ca0c
DTITLE=Masahiro Tajika  - Tahji
DYEAR=2011
DGENRE=Jazz
TTITLE0=D.T.
TTITLE1=The Cupbearers
TTITLE2=UGETSU
TTITLE3=Goodbye
TTITLE4=Thadrack
TTITLE5=Funk In Deep Freeze
TTITLE6=KALENA
TTITLE7=Queensboro
TTITLE8=Cheese Cake
TTITLE9=Ditmars Boulevard
TTITLE10=Mo'Joe
TTITLE11=Only Trust Your Heart
EXTD=YEAR: 2011
EXTT0=
EXTT1=
EXTT2=
EXTT3=
EXTT4=
EXTT5=
EXTT6=
EXTT7=
EXTT8=
EXTT9=
EXTT10=
EXTT11=
PLAYORDER=
